<?xml version="1.0" encoding="utf-8"?>
<svg id="master-artboard" viewBox="0 0 653.715576171875 693.4174194335938" version="1.1" xmlns="http://www.w3.org/2000/svg" x="0px" y="0px" style="enable-background:new 0 0 1400 980;" width="653.715576171875px" height="693.4174194335938px"><rect id="ee-background" x="0" y="0" width="653.715576171875" height="693.4174194335938" style="fill: white; fill-opacity: 0; pointer-events: none;"/><g transform="matrix(40.83333206176758, 0, 0, 40.83333206176758, -163.14219665527344, -121.6513786315918)"><g data-name="Layer 2"><g data-name="download"><path d="M 0 0 H 24 V 24 H 0 V 0 Z" opacity="0" style="fill: rgb(125, 158, 181);"/><path d="M 5 18 H 19 A 1 1 0 0 1 20 19 V 19 A 1 1 0 0 1 19 20 H 5 A 1 1 0 0 1 4 19 V 19 A 1 1 0 0 1 5 18 Z" style="fill: rgb(125, 158, 181);"/><path d="M 4 17 H 6 A 1 1 0 0 1 7 18 V 18 A 1 1 0 0 1 6 19 H 4 A 1 1 0 0 1 3 18 V 18 A 1 1 0 0 1 4 17 Z" transform="rotate(-90 5 18)" style="fill: rgb(125, 158, 181);"/><path d="M 18 17 H 20 A 1 1 0 0 1 21 18 V 18 A 1 1 0 0 1 20 19 H 18 A 1 1 0 0 1 17 18 V 18 A 1 1 0 0 1 18 17 Z" transform="rotate(-90 19 18)" style="fill: rgb(125, 158, 181);"/><path d="M12 15a1 1 0 0 1-.58-.18l-4-2.82a1 1 0 0 1-.24-1.39 1 1 0 0 1 1.4-.24L12 12.76l3.4-2.56a1 1 0 0 1 1.2 1.6l-4 3a1 1 0 0 1-.6.2z" style="fill: rgb(125, 158, 181);"/><path d="M12 13a1 1 0 0 1-1-1V4a1 1 0 0 1 2 0v8a1 1 0 0 1-1 1z" style="fill: rgb(125, 158, 181);"/></g></g></g></svg>