<?xml version="1.0" encoding="utf-8"?>
<svg id="master-artboard" viewBox="0 0 661.9036865234375 819.7476806640625" version="1.1" xmlns="http://www.w3.org/2000/svg" x="0px" y="0px" style="enable-background:new 0 0 336 235.2;" width="661.9036865234375px" height="819.7476806640625px"><rect id="ee-background" x="0" y="0" width="661.9036865234375" height="819.7476806640625" style="fill: white; fill-opacity: 0; pointer-events: none;"/><g transform="matrix(40.83333206176758, 0, 0, 40.83333206176758, -157.29359436035156, -80.71100497245789)"><g data-name="Layer 2"><g data-name="edit-2"><path d="M 0 0 H 24 V 24 H 0 V 0 Z" opacity="0" style="fill: rgb(125, 158, 181);"/><path d="M19 20H5a1 1 0 0 0 0 2h14a1 1 0 0 0 0-2z" style="fill: rgb(125, 158, 181);"/><path d="M5 18h.09l4.17-.38a2 2 0 0 0 1.21-.57l9-9a1.92 1.92 0 0 0-.07-2.71L16.66 2.6A2 2 0 0 0 14 2.53l-9 9a2 2 0 0 0-.57 1.21L4 16.91a1 1 0 0 0 .29.8A1 1 0 0 0 5 18zM15.27 4L18 6.73l-2 1.95L13.32 6zm-8.9 8.91L12 7.32l2.7 2.7-5.6 5.6-3 .28z" style="fill: rgb(125, 158, 181);"/></g></g></g></svg>