<?xml version="1.0" encoding="utf-8"?>
<svg id="master-artboard" viewBox="0 0 823.32568359375 819.7476806640625" version="1.1" xmlns="http://www.w3.org/2000/svg" x="0px" y="0px" style="enable-background:new 0 0 1400 980;" width="823.32568359375px" height="819.7476806640625px"><rect id="ee-background" x="0" y="0" width="823.32568359375" height="819.7476806640625" style="fill: white; fill-opacity: 0; pointer-events: none;"/><g transform="matrix(40.83333206176758, 0, 0, 40.83333206176758, -77.75228881835938, -80.71100735664368)"><g data-name="Layer 2"><g data-name="trash-2"><path d="M 0 0 H 24 V 24 H 0 V 0 Z" opacity="0" style="fill: rgb(125, 158, 181);"/><path d="M21 6h-5V4.33A2.42 2.42 0 0 0 13.5 2h-3A2.42 2.42 0 0 0 8 4.33V6H3a1 1 0 0 0 0 2h1v11a3 3 0 0 0 3 3h10a3 3 0 0 0 3-3V8h1a1 1 0 0 0 0-2zM10 4.33c0-.16.21-.33.5-.33h3c.29 0 .5.17.5.33V6h-4zM18 19a1 1 0 0 1-1 1H7a1 1 0 0 1-1-1V8h12z" style="fill: rgb(125, 158, 181);"/><path d="M9 17a1 1 0 0 0 1-1v-4a1 1 0 0 0-2 0v4a1 1 0 0 0 1 1z" style="fill: rgb(125, 158, 181);"/><path d="M15 17a1 1 0 0 0 1-1v-4a1 1 0 0 0-2 0v4a1 1 0 0 0 1 1z" style="fill: rgb(125, 158, 181);"/></g></g></g></svg>